<?xml version="1.0" standalone="no"?>
<!DOCTYPE svg PUBLIC "-//W3C//DTD SVG 20010904//EN"
 "http://www.w3.org/TR/2001/REC-SVG-20010904/DTD/svg10.dtd">
<svg version="1.0" xmlns="http://www.w3.org/2000/svg"
 width="96.000000pt" height="96.000000pt" viewBox="0 0 96.000000 96.000000"
 preserveAspectRatio="xMidYMid meet">
<metadata>
Created by potrace 1.14, written by Peter Selinger 2001-2017
</metadata>
<g transform="translate(0.000000,96.000000) scale(0.100000,-0.100000)"
fill="#000000" stroke="none">
<path d="M91 836 c-48 -27 -50 -41 -51 -359 l0 -299 34 -34 34 -34 366 0 c398
0 410 1 434 55 8 18 12 112 12 315 0 312 -3 331 -51 356 -39 20 -742 20 -778
0z m87 -79 c4 -20 -25 -34 -40 -19 -15 15 -1 44 19 40 10 -2 19 -11 21 -21z
m70 0 c4 -20 -25 -34 -40 -19 -15 15 -1 44 19 40 10 -2 19 -11 21 -21z m65 11
c6 -19 -3 -38 -18 -38 -18 0 -28 17 -21 35 7 18 33 20 39 3z m557 -342 c0
-200 -2 -237 -16 -250 -13 -14 -61 -16 -374 -16 -313 0 -361 2 -374 16 -14 13
-16 50 -16 250 l0 234 390 0 390 0 0 -234z"/>
<path d="M422 371 c-9 -5 -12 -26 -10 -67 l3 -59 65 0 65 0 3 53 c2 31 -2 60
-9 68 -13 15 -95 19 -117 5z"/>
</g>
</svg>
